<svg xmlns="http://www.w3.org/2000/svg" width="221.7" height="256" viewBox="0 0 221.7 256"><path d="M110.9 18.4l94.9 54.8v109.6l-94.9 54.8-95-54.8V73.2l95-54.8z"/><path fill="#fff" d="M58.8 168.5a1.7 1.7 0 0 1-1.8-1.8v-21.8H33.3a1.8 1.8 0 1 1 0-3.6h13.5v-11.7a1.7 1.7 0 0 1 1.8-1.8h7a57 57 0 0 1 55.1-43.7c.1-.2.3-.2.7 0a56.9 56.9 0 0 1 54.7 43.7h7a1.7 1.7 0 0 1 1.8 1.8v11.7h13.5a1.8 1.8 0 0 1 0 3.6h-23.7v21.8a1.7 1.7 0 0 1-1.8 1.8zm-8.4-37.1v9.9h120.9v-9.9zm56.8-43.5c-23 1.4-42.2 18.1-47.8 39.9h19.2zm-46.6 57v20H109v-20zM109 91.5l-25.9 36.3H109zm3.6-3.8v40.1h49.7a53.5 53.5 0 0 0-49.7-40.1zm0 57.2v20h8.1v-20zm11.7 0v20h36.8v-20z"/></svg>