<svg xmlns="http://www.w3.org/2000/svg" width="221.7" height="256" viewBox="0 0 221.7 256"><path d="M110.9 18.4l94.9 54.8v109.6l-94.9 54.8-95-54.8V73.2l95-54.8z"/><path fill="#fff" d="M57.2 172.5l-4.1-6a1.7 1.7 0 0 1 .2-2.1l14.9-17.7h-7.4a1.7 1.7 0 0 1-1.8-1.8V132a1.7 1.7 0 0 1 1.8-1.8h10.5a49.4 49.4 0 0 1-2-13.7 42.6 42.6 0 1 1 83.1 13.7h10.5a1.7 1.7 0 0 1 1.8 1.8v12.9a1.7 1.7 0 0 1-1.8 1.8h-9.2l14.7 17.7a1.7 1.7 0 0 1 0 2.1l-4.1 6a1.8 1.8 0 0 1-2.3.5l-8.7-4.5H68.2l-8.6 4.5a2 2 0 0 1-2.4-.5zm27.4-25.8H72.7l-15.8 18.7 2.5 3.6 30.4-16zm-22-12.9v9.3h98.5v-9.3zm12.4-3.6h73.6a42.3 42.3 0 0 0 2.2-13.7 39 39 0 0 0-77.9 0c0 4.7.3 9.5 2.1 13.7zm17.3 25.7l-17.1 9h24.5zm-3.1-9.2l15.2 18.2h12.9l15.1-18.2zm40.2 9.2l-7.4 9h24.5zm19.6-9.2h-11.9l-5.4 6.3 30.6 16 2.5-3.4z"/></svg>